<svg width="40" height="40" viewBox="0 0 40 40" fill="none" xmlns="http://www.w3.org/2000/svg">
<path d="M20.0007 33.3335C23.5369 33.3335 26.9283 31.9287 29.4287 29.4283C31.9292 26.9278 33.334 23.5364 33.334 20.0002C33.334 16.4639 31.9292 13.0726 29.4287 10.5721C26.9283 8.07159 23.5369 6.66683 20.0007 6.66683C16.4644 6.66683 13.073 8.07159 10.5726 10.5721C8.07208 13.0726 6.66732 16.4639 6.66732 20.0002C6.66732 23.5364 8.07208 26.9278 10.5726 29.4283C13.073 31.9287 16.4644 33.3335 20.0007 33.3335ZM20.0007 3.3335C22.1893 3.3335 24.3566 3.76459 26.3787 4.60217C28.4008 5.43975 30.2381 6.66741 31.7858 8.21505C33.3334 9.76269 34.5611 11.6 35.3986 13.6221C36.2362 15.6442 36.6673 17.8115 36.6673 20.0002C36.6673 24.4204 34.9114 28.6597 31.7858 31.7853C28.6602 34.9109 24.4209 36.6668 20.0007 36.6668C10.784 36.6668 3.33398 29.1668 3.33398 20.0002C3.33398 15.5799 5.08993 11.3407 8.21554 8.21505C11.3411 5.08944 15.5804 3.3335 20.0007 3.3335ZM20.834 11.6668V20.4168L28.334 24.8668L27.084 26.9168L18.334 21.6668V11.6668H20.834Z" fill="black"/>
</svg>
