<svg width="22" height="22" viewBox="0 0 22 22" fill="none" xmlns="http://www.w3.org/2000/svg">
<path d="M11.0007 10.5418C10.3929 10.5418 9.80997 10.3004 9.3802 9.87062C8.95043 9.44085 8.70898 8.85795 8.70898 8.25016C8.70898 7.64237 8.95043 7.05948 9.3802 6.62971C9.80997 6.19994 10.3929 5.9585 11.0007 5.9585C11.6084 5.9585 12.1913 6.19994 12.6211 6.62971C13.0509 7.05948 13.2923 7.64237 13.2923 8.25016C13.2923 8.55111 13.233 8.84911 13.1179 9.12715C13.0027 9.40518 12.8339 9.65781 12.6211 9.87062C12.4083 10.0834 12.1557 10.2522 11.8776 10.3674C11.5996 10.4826 11.3016 10.5418 11.0007 10.5418ZM11.0007 1.8335C9.29884 1.8335 7.66674 2.50954 6.46338 3.71289C5.26002 4.91625 4.58398 6.54836 4.58398 8.25016C4.58398 13.0627 11.0007 20.1668 11.0007 20.1668C11.0007 20.1668 17.4173 13.0627 17.4173 8.25016C17.4173 6.54836 16.7413 4.91625 15.5379 3.71289C14.3346 2.50954 12.7025 1.8335 11.0007 1.8335Z" fill="black"/>
</svg>
