<svg width="40" height="40" viewBox="0 0 40 40" fill="none" xmlns="http://www.w3.org/2000/svg">
<path d="M3.33398 33.3332V6.6665H36.6673V33.3332H3.33398ZM13.334 28.3332H16.6673V26.6665H18.334C18.8062 26.6665 19.2023 26.5065 19.5223 26.1865C19.8423 25.8665 20.0018 25.4709 20.0007 24.9998V19.9998C20.0007 19.5276 19.8407 19.1321 19.5207 18.8132C19.2007 18.4943 18.8051 18.3343 18.334 18.3332H13.334V16.6665H20.0007V13.3332H16.6673V11.6665H13.334V13.3332H11.6673C11.1951 13.3332 10.7995 13.4932 10.4807 13.8132C10.1618 14.1332 10.0018 14.5287 10.0007 14.9998V19.9998C10.0007 20.4721 10.1607 20.8682 10.4807 21.1882C10.8007 21.5082 11.1962 21.6676 11.6673 21.6665H16.6673V23.3332H10.0007V26.6665H13.334V28.3332ZM26.6673 27.0832L30.0007 23.7498H23.334L26.6673 27.0832ZM23.334 16.6665H30.0007L26.6673 13.3332L23.334 16.6665Z" fill="black"/>
</svg>
