<svg width="26" height="26" viewBox="0 0 26 26" fill="none" xmlns="http://www.w3.org/2000/svg">
<path d="M17.0195 13.7691C18.0816 12.9335 18.8569 11.7876 19.2374 10.4909C19.6179 9.19414 19.5848 7.81105 19.1426 6.53402C18.7005 5.25699 17.8713 4.14952 16.7704 3.36569C15.6696 2.58186 14.3518 2.16064 13.0004 2.16064C11.649 2.16064 10.3312 2.58186 9.23029 3.36569C8.12942 4.14952 7.30024 5.25699 6.85809 6.53402C6.41595 7.81105 6.38283 9.19414 6.76335 10.4909C7.14387 11.7876 7.9191 12.9335 8.9812 13.7691C7.16128 14.4982 5.57334 15.7076 4.38666 17.2682C3.19999 18.8288 2.45906 20.6822 2.24286 22.6308C2.22721 22.773 2.23974 22.917 2.27972 23.0544C2.31971 23.1918 2.38637 23.32 2.4759 23.4317C2.65672 23.6572 2.91971 23.8017 3.20703 23.8333C3.49435 23.8649 3.78245 23.781 4.00796 23.6002C4.23348 23.4194 4.37792 23.1564 4.40953 22.8691C4.64741 20.7514 5.65719 18.7956 7.24593 17.3753C8.83468 15.955 10.891 15.1699 13.022 15.1699C15.1531 15.1699 17.2094 15.955 18.7981 17.3753C20.3869 18.7956 21.3966 20.7514 21.6345 22.8691C21.664 23.1353 21.791 23.3811 21.9911 23.5592C22.1911 23.7373 22.45 23.8349 22.7179 23.8333H22.837C23.121 23.8006 23.3806 23.657 23.5591 23.4338C23.7377 23.2106 23.8208 22.9258 23.7904 22.6416C23.5731 20.6875 22.8282 18.8293 21.6354 17.2663C20.4427 15.7033 18.847 14.4944 17.0195 13.7691ZM13.0004 12.9999C12.1433 12.9999 11.3055 12.7458 10.5929 12.2696C9.88028 11.7935 9.32486 11.1167 8.99688 10.3249C8.6689 9.53308 8.58309 8.66179 8.75029 7.82121C8.91749 6.98062 9.3302 6.2085 9.93623 5.60247C10.5423 4.99644 11.3144 4.58373 12.155 4.41653C12.9956 4.24933 13.8668 4.33514 14.6587 4.66312C15.4505 4.9911 16.1272 5.54651 16.6034 6.25913C17.0795 6.97174 17.3337 7.80955 17.3337 8.6666C17.3337 9.81587 16.8771 10.9181 16.0645 11.7307C15.2518 12.5434 14.1496 12.9999 13.0004 12.9999Z" fill="black"/>
</svg>
