<svg width="40" height="40" viewBox="0 0 40 40" fill="none" xmlns="http://www.w3.org/2000/svg">
<path d="M20 34.9998L0 14.9998C2.63889 12.3054 5.68778 10.2426 9.14667 8.81151C12.6056 7.38039 16.2233 6.66539 20 6.66651C23.7767 6.66762 27.395 7.38317 30.855 8.81317C34.315 10.2432 37.3633 12.3054 40 14.9998L35.875 19.1248C35.2361 18.8193 34.5622 18.5898 33.8533 18.4365C33.1444 18.2832 32.4294 18.2071 31.7083 18.2082C28.9028 18.2082 26.5139 19.1943 24.5417 21.1665C22.5694 23.1387 21.5833 25.5276 21.5833 28.3332C21.5833 29.0554 21.66 29.771 21.8133 30.4798C21.9667 31.1887 22.1956 31.8621 22.5 32.4998L20 34.9998ZM30 34.9998V29.9998H25V26.6665H30V21.6665H33.3333V26.6665H38.3333V29.9998H33.3333V34.9998H30Z" fill="black"/>
</svg>
